<?xml version="1.0" encoding="iso-8859-1"?>
<!-- Generator: Adobe Illustrator 19.1.0, SVG Export Plug-In . SVG Version: 6.00 Build 0)  -->
<svg version="1.1" id="Capa_1" xmlns="http://www.w3.org/2000/svg" xmlns:xlink="http://www.w3.org/1999/xlink" x="0px" y="0px"
	 viewBox="0 0 63.831 63.831" style="enable-background:new 0 0 63.831 63.831;" xml:space="preserve">
<g>
	<g id="group-12svg">
		<path id="path-1_2_" style="fill:#E56A77;" d="M30.684,10.783L3.831,59.537h60L36.978,10.792
			C35.477,8.552,32.185,8.543,30.684,10.783z"/>
		<path id="path-2_2_" d="M61.5,57.537h-60c-0.531,0-1.022-0.281-1.292-0.738c-0.27-0.458-0.277-1.024-0.021-1.489L27.04,6.807
			c0.02-0.038,0.043-0.074,0.066-0.109c1.008-1.505,2.685-2.404,4.487-2.404c1.759,0,3.326,0.834,4.301,2.288
			c0.023,0.035,0.045,0.072,0.067,0.109l26.852,48.62c0.256,0.465,0.249,1.031-0.021,1.489C62.522,57.257,62.031,57.537,61.5,57.537
			z M4.045,54.537h54.913L33.369,8.206c-0.41-0.58-1.054-0.912-1.776-0.912c-0.781,0-1.51,0.383-1.962,1.027L4.045,54.537z"/>
		<path id="path-3_2_" d="M40.626,45.537h-20c-0.828,0-1.5-0.672-1.5-1.5s0.672-1.5,1.5-1.5h20c0.828,0,1.5,0.672,1.5,1.5
			S41.454,45.537,40.626,45.537z"/>
		<path id="path-4_2_" d="M40.626,39.537h-20c-0.828,0-1.5-0.672-1.5-1.5s0.672-1.5,1.5-1.5h20c0.828,0,1.5,0.672,1.5,1.5
			S41.454,39.537,40.626,39.537z"/>
		<path id="path-5_1_" d="M37.126,52.037c-0.828,0-1.5-0.672-1.5-1.5v-19c0-0.828,0.672-1.5,1.5-1.5s1.5,0.672,1.5,1.5v19
			C38.626,51.365,37.954,52.037,37.126,52.037z"/>
		<path id="path-6_1_" d="M23.126,52.037c-0.828,0-1.5-0.672-1.5-1.5v-19c0-0.828,0.672-1.5,1.5-1.5s1.5,0.672,1.5,1.5v19
			C24.626,51.365,23.954,52.037,23.126,52.037z"/>
		<path id="path-7_1_" d="M30.126,52.037c-0.828,0-1.5-0.672-1.5-1.5v-19c0-0.828,0.672-1.5,1.5-1.5s1.5,0.672,1.5,1.5v19
			C31.626,51.365,30.954,52.037,30.126,52.037z"/>
	</g>
</g>
<g>
</g>
<g>
</g>
<g>
</g>
<g>
</g>
<g>
</g>
<g>
</g>
<g>
</g>
<g>
</g>
<g>
</g>
<g>
</g>
<g>
</g>
<g>
</g>
<g>
</g>
<g>
</g>
<g>
</g>
</svg>
